<?xml version="1.0" encoding="UTF-8" standalone="no"?>
<svg
   xmlns:dc="http://purl.org/dc/elements/1.1/"
   xmlns:cc="http://creativecommons.org/ns#"
   xmlns:rdf="http://www.w3.org/1999/02/22-rdf-syntax-ns#"
   xmlns:svg="http://www.w3.org/2000/svg"
   xmlns="http://www.w3.org/2000/svg"
   xmlns:sodipodi="http://sodipodi.sourceforge.net/DTD/sodipodi-0.dtd"
   xmlns:inkscape="http://www.inkscape.org/namespaces/inkscape"
   version="1.0"
   width="580"
   height="550"
   id="svg48"
   sodipodi:docname="puzzle_graph.svg"
   inkscape:version="0.92.3 (2405546, 2018-03-11)"
   inkscape:export-filename="C:\Users\Kai\Documents\d&amp;d\sandpiles\puzzle_graph.png"
   inkscape:export-xdpi="96"
   inkscape:export-ydpi="96">
  <metadata
     id="metadata54">
    <rdf:RDF>
      <cc:Work
         rdf:about="">
        <dc:format>image/svg+xml</dc:format>
        <dc:type
           rdf:resource="http://purl.org/dc/dcmitype/StillImage" />
        <dc:title></dc:title>
      </cc:Work>
    </rdf:RDF>
  </metadata>
  <defs
     id="defs52" />
  <sodipodi:namedview
     pagecolor="#42536d"
     bordercolor="#666666"
     borderopacity="1"
     objecttolerance="10"
     gridtolerance="10"
     guidetolerance="10"
     inkscape:pageopacity="0"
     inkscape:pageshadow="2"
     inkscape:window-width="2560"
     inkscape:window-height="1361"
     id="namedview50"
     showgrid="false"
     fit-margin-top="0"
     fit-margin-left="0"
     fit-margin-right="0"
     fit-margin-bottom="0"
     inkscape:object-paths="true"
     inkscape:snap-smooth-nodes="false"
     inkscape:snap-object-midpoints="true"
     inkscape:zoom="1.84375"
     inkscape:cx="215.81639"
     inkscape:cy="281.70338"
     inkscape:window-x="-9"
     inkscape:window-y="-9"
     inkscape:window-maximized="1"
     inkscape:current-layer="svg48"
     inkscape:measure-start="0,0"
     inkscape:measure-end="0,0"
     showguides="true"
     inkscape:guide-bbox="true" />
  <path
     inkscape:connector-curvature="0"
     id="path4935"
     d="m 230.43164,31.332031 -0.42578,0.25586 -0.20508,-0.08594 -0.36328,0.425781 -0.7207,0.431641 0.14453,0.242187 -65.10742,76.21875 -92.605472,38.36719 -0.185547,-0.21289 -0.632813,0.55078 -0.517578,0.21484 0.01758,0.22071 -0.375,0.32617 0.439453,0.50586 5.042969,64.00195 -41.699219,48.81641 -0.654297,0.15039 0.111328,0.48437 -0.144531,0.16993 0.294922,0.47851 0.1875,0.81641 0.273438,-0.0625 52.36914,85.47265 7.873047,99.92969 -0.259766,0.11133 0.330079,0.77344 0.04297,0.55664 0.214844,0.0508 0.195313,0.45898 0.61914,-0.26367 62.42578,14.98438 33.54101,54.74218 -0.0586,0.66797 0.49414,0.043 0.11719,0.19141 0.54883,-0.13281 0.83203,0.0742 0.0254,-0.27929 97.47265,-23.39258 97.47071,23.39258 0.0254,0.27929 0.83203,-0.0742 0.54883,0.13281 0.11718,-0.19141 0.49414,-0.043 -0.0586,-0.66797 33.54102,-54.74218 62.42578,-14.98438 0.61914,0.26367 0.19531,-0.45898 0.21484,-0.0508 0.043,-0.55664 0.33008,-0.77344 -0.25976,-0.11133 7.87304,-99.92773 52.36914,-85.47461 0.27344,0.0625 0.1875,-0.81446 0.29492,-0.48046 -0.14453,-0.16993 0.11133,-0.48437 -0.6543,-0.15039 -41.69922,-48.81641 5.04297,-64.00195 0.43946,-0.50586 -0.375,-0.32617 0.0176,-0.22071 -0.51757,-0.21484 -0.63282,-0.55078 -0.18554,0.21289 -92.60547,-38.36719 -65.10742,-76.21875 0.14453,-0.242187 -0.72071,-0.431641 -0.36328,-0.425781 -0.20507,0.08594 -0.42579,-0.25586 -0.3457,0.574219 L 290.0899,56.478516 230.7774,31.90625 Z m -0.48633,3.076172 22.58008,37.632813 -84.70117,35.093754 z m 120.28711,0 62.1211,72.726567 -84.70118,-35.093754 z m -117.72656,0.376953 54.97266,22.775391 -33.08399,13.707031 z m 115.16602,0 L 325.7832,71.267578 292.69922,57.560547 Z M 290.08789,58.642578 324.74414,73 290.08789,130.75781 255.43359,73 Z m -36.52344,15.13086 35.35743,58.929682 -0.20508,0.34376 0.37109,0.22265 v 78.92578 l -65.74805,47.76758 -75.0625,-24.38867 -0.0977,-0.42188 -0.38672,0.0898 -45.11914,-51.83789 62.29101,-72.92383 z m 73.04883,0.002 88.60156,36.707032 62.28907,72.92188 -45.11914,51.83789 -0.38672,-0.0898 -0.0977,0.42188 -75.0625,24.38867 -65.75,-47.76953 v -78.92383 l 0.37305,-0.22265 -0.20508,-0.34376 z M 160.89648,112.16797 101.3457,181.88086 72.53125,148.77539 Z m 258.38672,0.002 88.36133,36.60742 -28.8125,33.10352 z m -347.181638,39.15625 27.931638,32.0918 -23.259762,27.22851 z m 435.974608,0 -4.67187,59.32031 -23.25977,-27.22851 z M 101.35938,184.94336 145.58203,235.75 79.941406,250.85938 76.996094,213.46484 Z m 377.45898,0 24.36328,28.52148 -2.94531,37.39454 L 434.5957,235.75 Z m -188.73047,28.99414 65.39844,47.51562 -24.97852,76.88086 h -80.83789 l -24.98047,-76.88086 z m 214.92969,1.67578 38.64844,45.24414 -41.46094,-9.54297 z m -429.859377,0.002 2.8125,35.69922 -41.458984,9.54297 z m 71.910157,21.84375 0.26367,0.30274 0.32813,-0.28516 75.0625,24.39063 25.11132,77.29101 -46.39062,63.85157 -0.43164,-0.0371 -0.0352,0.39648 -63.24023,26.89258 -50.103518,-81.77539 -7.53125,-95.61133 z m 286.04102,0 66.96679,15.41602 -7.53125,95.61133 -50.10351,81.77539 -63.24219,-26.89258 -0.0352,-0.39648 -0.43164,0.0371 -46.38867,-63.85157 25.11133,-77.29101 75.0625,-24.39063 0.32812,0.28516 z m 68.9375,15.86914 42.76953,9.84571 -49.96875,81.55469 z m -423.917974,0.002 7.201172,91.39844 -49.96875,-81.55469 z m 171.324214,87.0039 h 81.26954 l 46.39257,63.85157 -0.16992,0.39843 0.36719,0.15625 6.0332,68.45704 -93.25586,22.38085 -93.25781,-22.38085 6.0332,-68.45704 0.36719,-0.15625 -0.16992,-0.39843 z m -161.474604,12.54297 47.898434,78.17578 -40.388669,17.17383 z m 404.220704,0.002 -7.50977,95.34765 -40.38672,-17.17383 z m -291.41992,52.74804 -5.91407,67.09766 -36.47656,-8.75391 -19.5957,-31.98437 z m 178.61718,0.002 61.98829,26.35742 -19.59571,31.98437 -36.47656,8.75391 z M 136.93359,432.77751 155.64062,463.31072 97.783203,449.424 Z m 306.3125,0 39.14844,16.64649 -57.85547,13.88672 z m -283.3789,33.60352 34.82226,8.35742 -3.73633,42.38086 z m 260.44336,0 -31.08594,50.73828 -3.73633,-42.38086 z m -223.65625,8.83008 89.14843,21.39648 -93,22.32031 z m 186.86914,0 3.85156,43.71679 -93,-22.32031 z"
     style="color:#000000;font-style:normal;font-variant:normal;font-weight:normal;font-stretch:normal;font-size:medium;line-height:normal;font-family:sans-serif;font-variant-ligatures:normal;font-variant-position:normal;font-variant-caps:normal;font-variant-numeric:normal;font-variant-alternates:normal;font-feature-settings:normal;text-indent:0;text-align:start;text-decoration:none;text-decoration-line:none;text-decoration-style:solid;text-decoration-color:#000000;letter-spacing:normal;word-spacing:normal;text-transform:none;writing-mode:lr-tb;direction:ltr;text-orientation:mixed;dominant-baseline:auto;baseline-shift:baseline;text-anchor:start;white-space:normal;shape-padding:0;clip-rule:nonzero;display:inline;overflow:visible;visibility:visible;opacity:1;isolation:auto;mix-blend-mode:normal;color-interpolation:sRGB;color-interpolation-filters:linearRGB;solid-color:#000000;solid-opacity:1;vector-effect:none;fill:#626700;fill-opacity:1;fill-rule:nonzero;stroke:#fdffb6;stroke-width:2;stroke-linecap:round;stroke-linejoin:round;stroke-miterlimit:4;stroke-dasharray:none;stroke-dashoffset:0;stroke-opacity:1;paint-order:markers stroke fill;color-rendering:auto;image-rendering:auto;shape-rendering:auto;text-rendering:auto;enable-background:accumulate" />
  <g
     id="g945"
     style="fill:#a8f2ff;fill-opacity:1;stroke-width:1;stroke-miterlimit:4;stroke-dasharray:none;stroke:none;stroke-opacity:1;stroke-linejoin:round;stroke-linecap:round;paint-order:markers stroke fill">
    <g
       aria-label="1"
       style="font-style:normal;font-variant:normal;font-weight:normal;font-stretch:normal;font-size:24px;line-height:1.25;font-family:Gabriola;-inkscape-font-specification:Gabriola;text-align:center;letter-spacing:0px;word-spacing:0px;text-anchor:middle;fill:#a8f2ff;fill-opacity:1;stroke:none;stroke-width:1;stroke-linecap:round;stroke-linejoin:round;stroke-miterlimit:4;stroke-dasharray:none;stroke-opacity:1;paint-order:markers stroke fill"
       id="text868">
      <path
         d="m 323.53674,264.80807 q 0.73828,-0.24609 1.35938,-0.42773 0.62695,-0.1875 1.10156,-0.31055 0.48047,-0.12304 0.78516,-0.18164 0.31054,-0.0645 0.41601,-0.0645 0.2168,0 0.31641,0.12891 0.10547,0.12304 0.10547,0.32812 0,0.0469 -0.0117,0.24609 -0.006,0.19922 -0.0234,0.50391 -0.0176,0.30469 -0.041,0.69141 -0.0176,0.38086 -0.041,0.79101 -0.0234,0.4043 -0.0469,0.81446 -0.0176,0.41015 -0.0352,0.76171 -0.0293,0.53907 -0.0586,1.09571 -0.0234,0.55664 -0.0469,1.10742 -0.0234,0.55078 -0.041,1.08398 -0.0117,0.53321 -0.0176,1.02539 l -1.27735,0.15235 -0.0937,-0.006 q 0.0352,-0.39258 0.0645,-0.84375 0.0293,-0.45117 0.0527,-0.88477 0.0293,-0.43945 0.0469,-0.82031 0.0176,-0.38086 0.0293,-0.63281 0.0293,-0.76758 0.0645,-1.7461 0.041,-0.97851 0.041,-2.15039 0,-0.33398 -0.10547,-0.48046 -0.0996,-0.15235 -0.32812,-0.15235 -0.23438,0 -0.77344,0.0996 -0.5332,0.0937 -1.32422,0.31641 z"
         style="font-style:normal;font-variant:normal;font-weight:normal;font-stretch:normal;font-size:24px;font-family:Gabriola;-inkscape-font-specification:Gabriola;fill:#a8f2ff;fill-opacity:1;stroke:none;stroke-width:1;stroke-linecap:round;stroke-linejoin:round;stroke-miterlimit:4;stroke-dasharray:none;stroke-opacity:1;paint-order:markers stroke fill"
         id="path1756" />
    </g>
    <g
       aria-label="2"
       style="font-style:normal;font-variant:normal;font-weight:normal;font-stretch:normal;font-size:24px;line-height:1.25;font-family:Gabriola;-inkscape-font-specification:Gabriola;text-align:center;letter-spacing:0px;word-spacing:0px;text-anchor:middle;fill:#a8f2ff;fill-opacity:1;stroke:none;stroke-width:1;stroke-linecap:round;stroke-linejoin:round;stroke-miterlimit:4;stroke-dasharray:none;stroke-opacity:1;paint-order:markers stroke fill"
       id="text868-9">
      <path
         d="m 309.32089,317.92581 q 0.97852,-0.70898 1.72852,-1.31836 0.75,-0.60937 1.30078,-1.13672 0.55664,-0.52734 0.93164,-0.97851 0.375,-0.45117 0.60352,-0.83789 0.22851,-0.39258 0.32226,-0.72657 0.0996,-0.33984 0.0996,-0.64453 0,-0.50976 -0.1875,-0.86132 -0.18164,-0.35157 -0.46875,-0.56836 -0.28125,-0.22266 -0.63281,-0.32227 -0.34571,-0.0996 -0.67383,-0.0996 -0.42188,0 -0.7207,0.0996 -0.29297,0.0937 -0.48047,0.25781 -0.18164,0.15821 -0.26953,0.375 -0.082,0.21094 -0.082,0.44532 0,0.33984 0.14062,0.67968 0.14063,0.33399 0.42188,0.5625 l -0.0234,0.0762 q -0.32813,0.16993 -0.67969,0.16993 -0.2168,0 -0.41602,-0.0645 -0.19921,-0.0703 -0.35156,-0.19922 -0.15234,-0.13476 -0.24609,-0.32812 -0.0879,-0.19336 -0.0879,-0.43945 0,-0.35157 0.16992,-0.66211 0.16992,-0.31641 0.45117,-0.57422 0.28711,-0.26367 0.66211,-0.46875 0.375,-0.20508 0.7793,-0.3457 0.41015,-0.14063 0.82617,-0.2168 0.41602,-0.0762 0.78516,-0.0762 0.5332,0 0.99609,0.14062 0.46875,0.14063 0.80859,0.41016 0.34571,0.26367 0.53907,0.65039 0.19921,0.38672 0.19921,0.8789 0,0.35743 -0.0937,0.73243 -0.0937,0.375 -0.32226,0.79101 -0.22266,0.41016 -0.60352,0.87305 -0.375,0.46289 -0.94922,0.99023 -0.57421,0.52149 -1.35937,1.11914 -0.78516,0.59766 -1.82813,1.28907 l 0.0117,0.0293 q 0.55078,-0.14648 1.125,-0.26367 0.57422,-0.11719 1.11328,-0.19922 0.53907,-0.0879 1.0254,-0.1289 0.48632,-0.0469 0.87304,-0.0469 0.32227,0 0.57422,0.0469 0.25781,0.041 0.43945,0.13476 0.18164,0.0937 0.27539,0.2461 0.0996,0.14648 0.0996,0.35156 0,0.26953 -0.16992,0.65625 -0.84375,-0.082 -1.64062,-0.11719 -0.79102,-0.0352 -1.62305,-0.0352 -0.77344,0 -1.58789,0.041 -0.81445,0.041 -1.74609,0.11719 z"
         style="font-style:normal;font-variant:normal;font-weight:normal;font-stretch:normal;font-size:24px;font-family:Gabriola;-inkscape-font-specification:Gabriola;fill:#a8f2ff;fill-opacity:1;stroke:none;stroke-width:1;stroke-linecap:round;stroke-linejoin:round;stroke-miterlimit:4;stroke-dasharray:none;stroke-opacity:1;paint-order:markers stroke fill"
         id="path1759" />
    </g>
    <g
       aria-label="3"
       style="font-style:normal;font-variant:normal;font-weight:normal;font-stretch:normal;font-size:24px;line-height:1.25;font-family:Gabriola;-inkscape-font-specification:Gabriola;text-align:center;letter-spacing:0px;word-spacing:0px;text-anchor:middle;fill:#a8f2ff;fill-opacity:1;stroke:none;stroke-width:1;stroke-linecap:round;stroke-linejoin:round;stroke-miterlimit:4;stroke-dasharray:none;stroke-opacity:1;paint-order:markers stroke fill"
       id="text868-4">
      <path
         d="m 265.9563,315.77542 q 0.63281,-0.22266 1.21875,-0.5332 0.5918,-0.31641 1.04883,-0.73828 0.45703,-0.42188 0.72656,-0.96094 0.27539,-0.53906 0.27539,-1.21289 0,-0.43945 -0.16406,-0.79102 -0.15821,-0.35156 -0.4336,-0.59179 -0.27539,-0.2461 -0.64453,-0.375 -0.36914,-0.12891 -0.79101,-0.12891 -0.4336,0 -0.73828,0.0996 -0.29883,0.0937 -0.48633,0.25781 -0.1875,0.1582 -0.27539,0.375 -0.082,0.21094 -0.082,0.44531 0,0.33985 0.1289,0.65625 0.12891,0.31641 0.41016,0.54493 l -0.0234,0.0762 q -0.35156,0.16992 -0.67969,0.16992 -0.22265,0 -0.41601,-0.0645 -0.1875,-0.0645 -0.32813,-0.19336 -0.14062,-0.12891 -0.22265,-0.31641 -0.0762,-0.19336 -0.0762,-0.43945 0,-0.35742 0.16407,-0.66211 0.16992,-0.31055 0.45117,-0.56836 0.28711,-0.25781 0.66211,-0.45703 0.375,-0.20508 0.7793,-0.34571 0.41015,-0.14062 0.82617,-0.21093 0.42187,-0.0762 0.79687,-0.0762 0.51563,0 0.99024,0.14062 0.47461,0.13477 0.83789,0.41016 0.36328,0.26953 0.57422,0.67382 0.21679,0.39844 0.21679,0.92579 0,0.46289 -0.14062,0.8789 -0.13477,0.41016 -0.36914,0.77344 -0.23438,0.35742 -0.55078,0.66797 -0.31641,0.31055 -0.67383,0.57422 -0.35742,0.25781 -0.74414,0.47461 -0.38086,0.21093 -0.74414,0.375 l 0.0117,0.0351 q 0.0293,-0.006 0.0586,-0.006 0.0352,0 0.0645,0 h 0.13477 q 0.66211,0 1.27734,0.19922 0.61524,0.19336 1.08399,0.5625 0.47461,0.36914 0.75586,0.90821 0.2871,0.5332 0.2871,1.21289 0,0.62695 -0.19921,1.17773 -0.19336,0.55078 -0.53907,1.00781 -0.3457,0.45703 -0.81445,0.81446 -0.46875,0.36328 -1.01367,0.60937 -0.54492,0.24609 -1.14258,0.375 -0.5918,0.13477 -1.18945,0.13477 -0.25196,0 -0.55664,-0.0352 -0.30469,-0.0293 -0.60938,-0.10547 -0.29883,-0.0762 -0.58594,-0.19922 -0.28125,-0.12304 -0.5039,-0.30468 -0.2168,-0.17579 -0.34571,-0.41602 -0.13476,-0.23438 -0.13476,-0.54492 0,-0.16406 0.0703,-0.32227 0.0703,-0.1582 0.19336,-0.28711 0.12305,-0.1289 0.29297,-0.21093 0.16992,-0.0762 0.36914,-0.0762 0.19336,0.44532 0.46289,0.76172 0.27539,0.32227 0.59766,0.52735 0.32226,0.21093 0.67968,0.31054 0.35743,0.0996 0.72071,0.0996 0.50976,0 0.99609,-0.19336 0.49219,-0.19336 0.87305,-0.55664 0.38086,-0.36328 0.60937,-0.88476 0.23438,-0.52149 0.23438,-1.17774 0,-0.6914 -0.2461,-1.22461 -0.24609,-0.53906 -0.6621,-0.90234 -0.41016,-0.36914 -0.96094,-0.55664 -0.54492,-0.19336 -1.14844,-0.19336 h -0.18164 q -0.11133,0 -0.19922,0.006 -0.082,0.006 -0.20508,0.0176 z"
         style="font-style:normal;font-variant:normal;font-weight:normal;font-stretch:normal;font-size:24px;font-family:Gabriola;-inkscape-font-specification:Gabriola;fill:#a8f2ff;fill-opacity:1;stroke:none;stroke-width:1;stroke-linecap:round;stroke-linejoin:round;stroke-miterlimit:4;stroke-dasharray:none;stroke-opacity:1;paint-order:markers stroke fill"
         id="path1762" />
    </g>
    <g
       aria-label="4"
       style="font-style:normal;font-variant:normal;font-weight:normal;font-stretch:normal;font-size:24px;line-height:1.25;font-family:Gabriola;-inkscape-font-specification:Gabriola;text-align:center;letter-spacing:0px;word-spacing:0px;text-anchor:middle;fill:#a8f2ff;fill-opacity:1;stroke:none;stroke-width:1;stroke-linecap:round;stroke-linejoin:round;stroke-miterlimit:4;stroke-dasharray:none;stroke-opacity:1;paint-order:markers stroke fill"
       id="text868-8">
      <path
         d="m 246.86089,275.31857 q 1.04882,-1.48242 1.79296,-2.63672 0.75,-1.16015 1.25977,-2.0625 0.51562,-0.9082 0.83203,-1.59961 0.31641,-0.6914 0.50391,-1.24218 0.19336,-0.55664 0.29297,-1.00782 0.0996,-0.45703 0.18164,-0.88476 0.31054,0 0.52148,0.0645 0.2168,0.0586 0.35156,0.16992 0.13477,0.11133 0.19336,0.27539 0.0586,0.15821 0.0586,0.35743 0,0.3457 -0.19922,0.85547 -0.19336,0.5039 -0.53321,1.13085 -0.33984,0.6211 -0.80273,1.3418 -0.46289,0.71485 -0.99609,1.48828 -0.52735,0.76758 -1.10743,1.57032 -0.57421,0.80273 -1.14843,1.5996 l 0.0176,0.0234 q 1.11914,-0.15234 2.17382,-0.26367 1.05469,-0.11719 2.0625,-0.18164 0.0176,-0.32813 0.0352,-0.67383 0.0176,-0.3457 0.0352,-0.76172 0.0176,-0.42187 0.0351,-0.94922 0.0234,-0.5332 0.0469,-1.23046 0.006,-0.20508 0.082,-0.35743 0.0762,-0.15234 0.19336,-0.24609 0.11719,-0.0996 0.26367,-0.14648 0.14648,-0.0469 0.29297,-0.0469 0.14062,0 0.28125,0.041 0.14648,0.0351 0.27539,0.11718 -0.0469,0.57422 -0.082,1.04883 -0.0352,0.47461 -0.0645,0.95508 -0.0293,0.48047 -0.0586,1.00781 -0.0293,0.52149 -0.0645,1.18946 0.50976,-0.0176 0.94336,-0.0176 0.32226,0 0.57422,0.0293 0.25195,0.0234 0.42773,0.0996 0.17578,0.0703 0.26953,0.19922 0.0937,0.12891 0.0937,0.33985 0,0.27539 -0.16992,0.66211 -0.5625,-0.0469 -1.10156,-0.0703 -0.53321,-0.0293 -1.08399,-0.0469 -0.0234,0.50976 -0.041,0.96094 -0.0176,0.45703 -0.0352,0.93164 -0.0176,0.48046 -0.0352,1.01953 -0.0176,0.54492 -0.041,1.23047 l -1.24219,0.1582 -0.0937,-0.006 q 0.0469,-0.82031 0.0762,-1.43555 0.0352,-0.60937 0.0586,-1.10156 0.0234,-0.49219 0.041,-0.91992 0.0176,-0.42188 0.0352,-0.86719 -0.0996,-0.006 -0.19336,-0.006 -0.0937,0 -0.1875,0 h -0.38086 q -1.00195,0 -2.16797,0.041 -1.16015,0.0351 -2.41406,0.14062 z"
         style="font-style:normal;font-variant:normal;font-weight:normal;font-stretch:normal;font-size:24px;font-family:Gabriola;-inkscape-font-specification:Gabriola;fill:#a8f2ff;fill-opacity:1;stroke:none;stroke-width:1;stroke-linecap:round;stroke-linejoin:round;stroke-miterlimit:4;stroke-dasharray:none;stroke-opacity:1;paint-order:markers stroke fill"
         id="path1765" />
    </g>
    <g
       aria-label="5"
       style="font-style:normal;font-variant:normal;font-weight:normal;font-stretch:normal;font-size:24px;line-height:1.25;font-family:Gabriola;-inkscape-font-specification:Gabriola;text-align:center;letter-spacing:0px;word-spacing:0px;text-anchor:middle;fill:#a8f2ff;fill-opacity:1;stroke:none;stroke-width:1;stroke-linecap:round;stroke-linejoin:round;stroke-miterlimit:4;stroke-dasharray:none;stroke-opacity:1;paint-order:markers stroke fill"
       id="text868-44">
      <path
         d="m 323.84909,129.29416 q 0.19336,0.33398 0.19336,0.61523 0,0.46289 -0.51563,0.70899 -0.50976,0.24023 -1.42382,0.24023 -0.65039,0 -1.47071,-0.0996 -0.81445,-0.10547 -1.81054,-0.30468 -0.0352,0.41601 -0.082,0.89648 -0.041,0.48047 -0.0996,0.97266 -0.0586,0.48632 -0.12891,0.94921 -0.0703,0.4629 -0.1582,0.8379 l 0.0234,0.0117 q 0.65039,-0.29882 1.24805,-0.43945 0.60352,-0.14648 1.17188,-0.14648 0.75586,0 1.38867,0.24609 0.63867,0.24023 1.0957,0.69141 0.45703,0.44531 0.71484,1.08398 0.25782,0.63281 0.25782,1.41211 0,0.59766 -0.15235,1.20703 -0.14648,0.61524 -0.43359,1.17774 -0.28711,0.56836 -0.71484,1.0664 -0.42188,0.49805 -0.97266,0.86133 -0.55078,0.36914 -1.23047,0.58008 -0.67383,0.2168 -1.46484,0.2168 -0.24024,0 -0.52735,-0.0352 -0.28711,-0.0352 -0.58007,-0.11719 -0.28711,-0.0762 -0.5625,-0.20508 -0.26954,-0.12304 -0.48047,-0.30468 -0.20508,-0.18164 -0.33399,-0.42188 -0.12304,-0.24023 -0.12304,-0.55078 0,-0.16406 0.0703,-0.32227 0.0703,-0.1582 0.19336,-0.28711 0.12304,-0.1289 0.29297,-0.21093 0.16992,-0.0762 0.36914,-0.0762 0.17578,0.44531 0.42773,0.76171 0.25781,0.32227 0.55664,0.52735 0.30469,0.21094 0.63867,0.31054 0.33985,0.0996 0.67383,0.0996 0.43945,0 0.82031,-0.14648 0.38672,-0.14648 0.69727,-0.4043 0.31641,-0.25781 0.55664,-0.60937 0.24609,-0.34571 0.41016,-0.75586 0.16992,-0.41016 0.25781,-0.86133 0.0879,-0.44531 0.0879,-0.90234 0,-0.67969 -0.20508,-1.26563 -0.19922,-0.58594 -0.56836,-1.01953 -0.36914,-0.43359 -0.89062,-0.67969 -0.51563,-0.24609 -1.1543,-0.24609 -0.45703,0 -0.95508,0.12891 -0.49804,0.12304 -1.0664,0.40429 l -0.26954,-0.38672 q 0.2168,-1.13086 0.34571,-2.43164 0.13476,-1.30078 0.19922,-2.67773 0.32226,0.0176 0.61523,0.0352 0.29297,0.0117 0.57422,0.0234 0.28125,0.006 0.55664,0.0117 0.27539,0.006 0.56836,0.006 0.83203,0 1.65234,-0.0293 0.82032,-0.0352 1.7168,-0.14648 z"
         style="font-style:normal;font-variant:normal;font-weight:normal;font-stretch:normal;font-size:24px;font-family:Gabriola;-inkscape-font-specification:Gabriola;fill:#a8f2ff;fill-opacity:1;stroke:none;stroke-width:1;stroke-linecap:round;stroke-linejoin:round;stroke-miterlimit:4;stroke-dasharray:none;stroke-opacity:1;paint-order:markers stroke fill"
         id="path1768" />
    </g>
    <g
       aria-label="6"
       style="font-style:normal;font-variant:normal;font-weight:normal;font-stretch:normal;font-size:24px;line-height:1.25;font-family:Gabriola;-inkscape-font-specification:Gabriola;text-align:center;letter-spacing:0px;word-spacing:0px;text-anchor:middle;fill:#a8f2ff;fill-opacity:1;stroke:none;stroke-width:1;stroke-linecap:round;stroke-linejoin:round;stroke-miterlimit:4;stroke-dasharray:none;stroke-opacity:1;paint-order:markers stroke fill"
       id="text868-97">
      <path
         d="m 432.66397,266.7005 q -0.0469,-0.0762 -0.082,-0.14648 -0.0293,-0.0762 -0.0293,-0.14063 0,-0.19922 0.27539,-0.33984 0.55078,-0.28125 1.10157,-0.41602 0.55078,-0.13476 1.0957,-0.13476 0.66211,0 1.25976,0.21093 0.59766,0.21094 1.04297,0.62696 0.45118,0.41601 0.71485,1.03711 0.26367,0.62109 0.26367,1.4414 0,0.68555 -0.1582,1.27149 -0.15821,0.58007 -0.43946,1.06054 -0.28125,0.48047 -0.66797,0.84961 -0.38086,0.36328 -0.82617,0.61524 -0.44531,0.25195 -0.9375,0.38086 -0.48633,0.1289 -0.98437,0.1289 -0.49219,0 -0.97852,-0.1289 -0.48047,-0.12891 -0.91992,-0.39844 -0.43359,-0.27539 -0.80859,-0.69141 -0.375,-0.42187 -0.65039,-0.99609 -0.26954,-0.58008 -0.42774,-1.31836 -0.15234,-0.74414 -0.15234,-1.66406 0,-0.95508 0.19922,-1.9043 0.19921,-0.94922 0.56836,-1.81055 0.375,-0.86132 0.90234,-1.59961 0.52734,-0.73828 1.17773,-1.2832 0.65039,-0.54492 1.41211,-0.84961 0.76172,-0.31055 1.60547,-0.31055 0.50391,0 0.87891,0.082 0.375,0.082 0.62109,0.21679 0.25195,0.13477 0.375,0.31055 0.12305,0.17578 0.12305,0.35742 0,0.10547 -0.0352,0.22852 -0.0351,0.12304 -0.12304,0.24023 -0.082,0.11719 -0.22852,0.2168 -0.14063,0.0996 -0.35156,0.1582 -0.2461,-0.27539 -0.49805,-0.44531 -0.24609,-0.16992 -0.49805,-0.25781 -0.25195,-0.0937 -0.5039,-0.12305 -0.25196,-0.0352 -0.50391,-0.0352 -0.78516,0 -1.44141,0.42188 -0.65625,0.41601 -1.13085,1.21289 -0.47461,0.79101 -0.74415,1.93945 -0.26367,1.14844 -0.26367,2.60742 0,1.38282 0.22852,2.34375 0.22851,0.96094 0.60351,1.56446 0.375,0.60351 0.84961,0.8789 0.48047,0.26953 0.98438,0.26953 0.52148,0 0.9375,-0.20507 0.42187,-0.21094 0.71484,-0.5918 0.29297,-0.38672 0.45117,-0.93164 0.15821,-0.55078 0.15821,-1.23047 0,-0.36328 -0.0703,-0.73828 -0.0644,-0.375 -0.20507,-0.7207 -0.13477,-0.35157 -0.34571,-0.65625 -0.20507,-0.30469 -0.48632,-0.53321 -0.28125,-0.22851 -0.63868,-0.35742 -0.35742,-0.13476 -0.79101,-0.13476 -0.4043,0 -0.80274,0.0996 -0.39843,0.0996 -0.82031,0.32227 z"
         style="font-style:normal;font-variant:normal;font-weight:normal;font-stretch:normal;font-size:24px;font-family:Gabriola;-inkscape-font-specification:Gabriola;fill:#a8f2ff;fill-opacity:1;stroke:none;stroke-width:1;stroke-linecap:round;stroke-linejoin:round;stroke-miterlimit:4;stroke-dasharray:none;stroke-opacity:1;paint-order:markers stroke fill"
         id="path1771" />
    </g>
    <g
       aria-label="7"
       style="font-style:normal;font-variant:normal;font-weight:normal;font-stretch:normal;font-size:24px;line-height:1.25;font-family:Gabriola;-inkscape-font-specification:Gabriola;text-align:center;letter-spacing:0px;word-spacing:0px;text-anchor:middle;fill:#a8f2ff;fill-opacity:1;stroke:none;stroke-width:1;stroke-linecap:round;stroke-linejoin:round;stroke-miterlimit:4;stroke-dasharray:none;stroke-opacity:1;paint-order:markers stroke fill"
       id="text868-3">
      <path
         d="m 353.3884,418.1705 q -1.44727,2.61328 -2.84766,5.69531 -1.39453,3.08204 -2.73633,6.63282 l -1.29492,0.0996 -0.0996,-0.0527 q 1.33008,-2.83008 2.69531,-5.625 1.3711,-2.80078 2.80664,-5.58984 -0.48046,-0.006 -0.89648,-0.006 -0.41016,-0.006 -0.78516,-0.006 -0.36914,-0.006 -0.70312,-0.006 -0.33399,-0.006 -0.65625,-0.006 h -0.83203 q -0.46289,0 -0.8086,0.0234 -0.33984,0.0234 -0.58593,0.0996 -0.2461,0.0762 -0.41016,0.22265 -0.16406,0.14063 -0.26953,0.38086 -0.10547,0.24024 -0.16992,0.59766 -0.0645,0.35742 -0.11133,0.85547 l -0.59766,-0.0176 0.0352,-0.65625 q 0.0293,-0.58008 0.0527,-1.01953 0.0293,-0.44531 0.0762,-0.76172 0.0527,-0.32227 0.1289,-0.5332 0.082,-0.2168 0.2168,-0.33985 0.14062,-0.1289 0.33984,-0.18164 0.19922,-0.0527 0.48633,-0.0527 0.1582,0 0.43945,0.0234 0.28711,0.0176 0.66211,0.041 0.38086,0.0176 0.84375,0.041 0.46289,0.0176 0.97266,0.0176 0.50391,0 0.9668,0 0.46875,-0.006 0.93164,-0.0176 0.46875,-0.0117 0.95507,-0.0352 0.49219,-0.0293 1.04297,-0.0762 z"
         style="font-style:normal;font-variant:normal;font-weight:normal;font-stretch:normal;font-size:24px;font-family:Gabriola;-inkscape-font-specification:Gabriola;fill:#a8f2ff;fill-opacity:1;stroke:none;stroke-width:1;stroke-linecap:round;stroke-linejoin:round;stroke-miterlimit:4;stroke-dasharray:none;stroke-opacity:1;paint-order:markers stroke fill"
         id="path1774" />
    </g>
    <g
       aria-label="8"
       style="font-style:normal;font-variant:normal;font-weight:normal;font-stretch:normal;font-size:24px;line-height:1.25;font-family:Gabriola;-inkscape-font-specification:Gabriola;text-align:center;letter-spacing:0px;word-spacing:0px;text-anchor:middle;fill:#a8f2ff;fill-opacity:1;stroke:none;stroke-width:1;stroke-linecap:round;stroke-linejoin:round;stroke-miterlimit:4;stroke-dasharray:none;stroke-opacity:1;paint-order:markers stroke fill"
       id="text868-43">
      <path
         d="m 229.51974,418.83746 q 0,0.58008 -0.21679,1.09571 -0.2168,0.51562 -0.57422,0.96093 -0.35742,0.44532 -0.81445,0.82032 -0.45704,0.375 -0.9375,0.67382 0.36328,0.19336 0.71484,0.39258 0.35742,0.19336 0.67383,0.41602 0.32226,0.2168 0.59179,0.46875 0.2754,0.25195 0.47461,0.55664 0.19922,0.30469 0.31055,0.66797 0.11719,0.36328 0.11719,0.80273 0,0.73828 -0.32227,1.40625 -0.3164,0.66211 -0.89062,1.16602 -0.57422,0.49804 -1.37696,0.79101 -0.79687,0.29297 -1.76367,0.29297 -0.67968,0 -1.30664,-0.17578 -0.62109,-0.16992 -1.10156,-0.52734 -0.47461,-0.36328 -0.76172,-0.91407 -0.28125,-0.55078 -0.28125,-1.30664 0,-0.63281 0.19922,-1.14843 0.20508,-0.52149 0.55664,-0.96094 0.35742,-0.43945 0.83203,-0.80859 0.48047,-0.375 1.03125,-0.72071 -0.41015,-0.25195 -0.77344,-0.54492 -0.36328,-0.29297 -0.63867,-0.65625 -0.26953,-0.36914 -0.42773,-0.82617 -0.15821,-0.45703 -0.15821,-1.03125 0,-0.7793 0.32813,-1.40039 0.32812,-0.6211 0.87891,-1.05469 0.55078,-0.43359 1.25976,-0.66211 0.70899,-0.23437 1.47656,-0.23437 0.55079,0 1.07227,0.1582 0.52148,0.15234 0.92578,0.46289 0.41016,0.31055 0.65625,0.77344 0.24609,0.45703 0.24609,1.0664 z m -4.33593,4.24219 q -0.36914,0.25781 -0.68555,0.55664 -0.31055,0.29883 -0.54492,0.65625 -0.22852,0.35156 -0.35742,0.76758 -0.12891,0.41602 -0.12891,0.90234 0,0.52735 0.14648,1.00782 0.15235,0.47461 0.45704,0.83203 0.30468,0.35742 0.75586,0.56836 0.45117,0.21093 1.06054,0.21093 0.47461,0 0.9375,-0.13476 0.46289,-0.13477 0.83203,-0.4043 0.36914,-0.27539 0.5918,-0.68555 0.22852,-0.41015 0.22852,-0.95507 0,-0.60352 -0.23438,-1.04883 -0.23437,-0.44531 -0.62109,-0.79102 -0.38672,-0.35156 -0.88477,-0.63281 -0.49805,-0.28711 -1.02539,-0.56836 z m -1.21875,-3.97851 q 0,0.57421 0.19922,1.01953 0.20507,0.43945 0.53906,0.79101 0.33984,0.35156 0.7793,0.63867 0.44531,0.28125 0.92578,0.53907 0.44531,-0.29883 0.77929,-0.60352 0.33399,-0.31055 0.55664,-0.65039 0.22266,-0.33984 0.33399,-0.72656 0.11133,-0.39258 0.11133,-0.85547 0,-0.45117 -0.12891,-0.83789 -0.12891,-0.38672 -0.38672,-0.67383 -0.25781,-0.28711 -0.64453,-0.44531 -0.38086,-0.16406 -0.89062,-0.16406 -0.44532,0 -0.84375,0.13476 -0.39258,0.12891 -0.69141,0.38086 -0.29297,0.25195 -0.46875,0.62109 -0.16992,0.36329 -0.16992,0.83204 z"
         style="font-style:normal;font-variant:normal;font-weight:normal;font-stretch:normal;font-size:24px;font-family:Gabriola;-inkscape-font-specification:Gabriola;fill:#a8f2ff;fill-opacity:1;stroke:none;stroke-width:1;stroke-linecap:round;stroke-linejoin:round;stroke-miterlimit:4;stroke-dasharray:none;stroke-opacity:1;paint-order:markers stroke fill"
         id="path1777" />
    </g>
    <g
       aria-label="9"
       style="font-style:normal;font-variant:normal;font-weight:normal;font-stretch:normal;font-size:24px;line-height:1.25;font-family:Gabriola;-inkscape-font-specification:Gabriola;text-align:center;letter-spacing:0px;word-spacing:0px;text-anchor:middle;fill:#a8f2ff;fill-opacity:1;stroke:none;stroke-width:1;stroke-linecap:round;stroke-linejoin:round;stroke-miterlimit:4;stroke-dasharray:none;stroke-opacity:1;paint-order:markers stroke fill"
       id="text868-1">
      <path
         d="m 149.57236,270.07803 q 0.0469,0.0762 0.0762,0.15235 0.0352,0.0703 0.0352,0.13476 0,0.18164 -0.2754,0.33985 -0.5332,0.29882 -1.0957,0.42773 -0.55664,0.12305 -1.10156,0.12305 -0.66211,0 -1.26563,-0.23438 -0.60351,-0.24023 -1.0664,-0.68554 -0.45703,-0.45118 -0.73242,-1.09571 -0.26954,-0.65039 -0.26954,-1.4707 0,-0.68555 0.15821,-1.25391 0.16406,-0.57422 0.44531,-1.03125 0.28125,-0.46289 0.66797,-0.80859 0.38672,-0.3457 0.83203,-0.57422 0.44531,-0.23437 0.9375,-0.35156 0.49219,-0.11719 0.99023,-0.11719 0.48633,0 0.96094,0.12891 0.47461,0.1289 0.90235,0.40429 0.42773,0.26954 0.79101,0.68555 0.36328,0.41602 0.62695,0.99609 0.26954,0.57422 0.42188,1.31836 0.15234,0.73829 0.15234,1.65235 0,0.63281 -0.082,1.30078 -0.0762,0.66797 -0.24609,1.33594 -0.16406,0.66211 -0.41602,1.30078 -0.25195,0.63867 -0.59765,1.20703 -0.33985,0.57422 -0.7793,1.05469 -0.43945,0.48047 -0.97852,0.82617 -0.5332,0.35156 -1.17187,0.54492 -0.63281,0.19922 -1.37695,0.19922 -0.5918,0 -1.05469,-0.12305 -0.45703,-0.12304 -0.77344,-0.3164 -0.31641,-0.19336 -0.48633,-0.4336 -0.16406,-0.23437 -0.16406,-0.46289 0,-0.11719 0.041,-0.24609 0.041,-0.12305 0.1289,-0.23438 0.0937,-0.10547 0.24024,-0.19336 0.15234,-0.0879 0.36914,-0.1289 0.25781,0.36328 0.55078,0.58593 0.29297,0.22852 0.59765,0.35743 0.30469,0.13476 0.61524,0.18164 0.31055,0.0469 0.60351,0.0469 0.88477,0 1.53516,-0.43945 0.65039,-0.43359 1.07813,-1.24219 0.42773,-0.80273 0.63281,-1.93945 0.20508,-1.13672 0.20508,-2.54297 0,-1.37695 -0.2168,-2.33789 -0.2168,-0.9668 -0.58008,-1.57031 -0.36328,-0.60352 -0.83203,-0.87305 -0.46875,-0.27539 -0.9668,-0.27539 -0.52148,0 -0.94336,0.18164 -0.42187,0.18164 -0.71484,0.5332 -0.29297,0.35157 -0.45117,0.87305 -0.1582,0.52148 -0.1582,1.19531 0,0.36328 0.0703,0.75 0.0703,0.38672 0.21094,0.75586 0.14062,0.36914 0.35156,0.69727 0.21679,0.32812 0.5039,0.57422 0.28711,0.24609 0.64454,0.39257 0.36328,0.14063 0.79687,0.14063 0.4043,0 0.80273,-0.0937 0.39844,-0.0996 0.82032,-0.32227 z"
         style="font-style:normal;font-variant:normal;font-weight:normal;font-stretch:normal;font-size:24px;font-family:Gabriola;-inkscape-font-specification:Gabriola;fill:#a8f2ff;fill-opacity:1;stroke:none;stroke-width:1;stroke-linecap:round;stroke-linejoin:round;stroke-miterlimit:4;stroke-dasharray:none;stroke-opacity:1;paint-order:markers stroke fill"
         id="path1780" />
    </g>
    <g
       aria-label="10"
       style="font-style:normal;font-variant:normal;font-weight:normal;font-stretch:normal;font-size:24px;line-height:1.25;font-family:Gabriola;-inkscape-font-specification:Gabriola;text-align:center;letter-spacing:0px;word-spacing:0px;text-anchor:middle;fill:#a8f2ff;fill-opacity:1;stroke:none;stroke-width:1;stroke-linecap:round;stroke-linejoin:round;stroke-miterlimit:4;stroke-dasharray:none;stroke-opacity:1;paint-order:markers stroke fill"
       id="text868-16">
      <path
         d="m 189.99188,13.235638 q 0.73828,-0.246094 1.35938,-0.427735 0.62695,-0.1875 1.10156,-0.310547 0.48047,-0.123046 0.78516,-0.18164 0.31054,-0.06445 0.41601,-0.06445 0.2168,0 0.31641,0.128906 0.10547,0.123047 0.10547,0.328125 0,0.04687 -0.0117,0.246094 -0.006,0.199218 -0.0234,0.503906 -0.0176,0.304687 -0.041,0.691406 -0.0176,0.38086 -0.041,0.791016 -0.0234,0.404297 -0.0469,0.814453 -0.0176,0.410156 -0.0351,0.761719 -0.0293,0.539062 -0.0586,1.095703 -0.0234,0.55664 -0.0469,1.107422 -0.0234,0.550781 -0.041,1.083984 -0.0117,0.533203 -0.0176,1.025391 l -1.27735,0.152343 -0.0937,-0.0059 q 0.0352,-0.392578 0.0644,-0.84375 0.0293,-0.451172 0.0527,-0.884766 0.0293,-0.439453 0.0469,-0.820312 0.0176,-0.380859 0.0293,-0.632813 0.0293,-0.767578 0.0644,-1.746093 0.041,-0.978516 0.041,-2.150391 0,-0.333984 -0.10547,-0.480469 -0.0996,-0.152343 -0.32812,-0.152343 -0.23438,0 -0.77344,0.09961 -0.5332,0.09375 -1.32422,0.316406 z"
         style="font-style:normal;font-variant:normal;font-weight:normal;font-stretch:normal;font-size:24px;font-family:Gabriola;-inkscape-font-specification:Gabriola;fill:#a8f2ff;fill-opacity:1;stroke:none;stroke-width:1;stroke-linecap:round;stroke-linejoin:round;stroke-miterlimit:4;stroke-dasharray:none;stroke-opacity:1;paint-order:markers stroke fill"
         id="path1783" />
      <path
         d="m 200.56219,12.18681 q 0.81446,0 1.50586,0.269531 0.69727,0.269531 1.19532,0.796875 0.5039,0.527344 0.78515,1.300781 0.28711,0.767578 0.28711,1.769531 0,0.732422 -0.15234,1.376953 -0.15235,0.638672 -0.42774,1.177735 -0.26953,0.533203 -0.65625,0.955078 -0.38671,0.421875 -0.86132,0.714844 -0.46875,0.292968 -1.00782,0.445312 -0.53906,0.152344 -1.125,0.152344 -0.80273,0 -1.5,-0.269531 -0.69726,-0.263672 -1.21289,-0.785157 -0.50976,-0.527343 -0.80273,-1.30664 -0.29297,-0.779297 -0.29297,-1.798828 0,-0.720703 0.15234,-1.353516 0.15235,-0.638672 0.42774,-1.171875 0.28125,-0.533203 0.66797,-0.955078 0.39257,-0.421875 0.86718,-0.714844 0.47461,-0.292969 1.01954,-0.445312 0.54492,-0.158203 1.13085,-0.158203 z m -0.0527,8.185546 q 0.5625,0 1.00195,-0.251953 0.44532,-0.257812 0.75,-0.708984 0.31055,-0.457031 0.46875,-1.083984 0.16407,-0.632813 0.16407,-1.388672 0,-0.533203 -0.0937,-1.03125 -0.0879,-0.503907 -0.25782,-0.94336 -0.16992,-0.445312 -0.41601,-0.808593 -0.24024,-0.363282 -0.55078,-0.626954 -0.31055,-0.263671 -0.67969,-0.410156 -0.36914,-0.146484 -0.79102,-0.146484 -0.5039,0 -0.94336,0.234375 -0.43359,0.228515 -0.75586,0.673828 -0.3164,0.439453 -0.49804,1.078125 -0.18164,0.632812 -0.18164,1.441406 0,0.779297 0.19336,1.5 0.19336,0.714844 0.55664,1.265625 0.36328,0.550781 0.87304,0.878906 0.51563,0.328125 1.16016,0.328125 z"
         style="font-style:normal;font-variant:normal;font-weight:normal;font-stretch:normal;font-size:24px;font-family:Gabriola;-inkscape-font-specification:Gabriola;fill:#a8f2ff;fill-opacity:1;stroke:none;stroke-width:1;stroke-linecap:round;stroke-linejoin:round;stroke-miterlimit:4;stroke-dasharray:none;stroke-opacity:1;paint-order:markers stroke fill"
         id="path1785" />
    </g>
    <g
       aria-label="15"
       style="font-style:normal;font-variant:normal;font-weight:normal;font-stretch:normal;font-size:24px;line-height:1.25;font-family:Gabriola;-inkscape-font-specification:Gabriola;text-align:center;letter-spacing:0px;word-spacing:0px;text-anchor:middle;fill:#a8f2ff;fill-opacity:1;stroke:none;stroke-width:1;stroke-linecap:round;stroke-linejoin:round;stroke-miterlimit:4;stroke-dasharray:none;stroke-opacity:1;paint-order:markers stroke fill"
       id="text868-47">
      <path
         d="m 373.56589,12.523767 q 0.73828,-0.246093 1.35937,-0.427734 0.62696,-0.1875 1.10156,-0.310547 0.48047,-0.123047 0.78516,-0.18164 0.31055,-0.06445 0.41602,-0.06445 0.21679,0 0.3164,0.128907 0.10547,0.123047 0.10547,0.328125 0,0.04687 -0.0117,0.246093 -0.006,0.199219 -0.0234,0.503907 -0.0176,0.304687 -0.041,0.691406 -0.0176,0.380859 -0.041,0.791016 -0.0234,0.404296 -0.0469,0.814453 -0.0176,0.410156 -0.0352,0.761718 -0.0293,0.539063 -0.0586,1.095704 -0.0234,0.55664 -0.0469,1.107421 -0.0234,0.550782 -0.041,1.083985 -0.0117,0.533203 -0.0176,1.02539 l -1.27734,0.152344 -0.0937,-0.0059 q 0.0351,-0.392578 0.0644,-0.84375 0.0293,-0.451172 0.0527,-0.884766 0.0293,-0.439453 0.0469,-0.820312 0.0176,-0.38086 0.0293,-0.632813 0.0293,-0.767578 0.0645,-1.746094 0.041,-0.978515 0.041,-2.15039 0,-0.333985 -0.10546,-0.480469 -0.0996,-0.152344 -0.32813,-0.152344 -0.23437,0 -0.77344,0.09961 -0.5332,0.09375 -1.32422,0.316406 z"
         style="font-style:normal;font-variant:normal;font-weight:normal;font-stretch:normal;font-size:24px;font-family:Gabriola;-inkscape-font-specification:Gabriola;fill:#a8f2ff;fill-opacity:1;stroke:none;stroke-width:1;stroke-linecap:round;stroke-linejoin:round;stroke-miterlimit:4;stroke-dasharray:none;stroke-opacity:1;paint-order:markers stroke fill"
         id="path1788" />
      <path
         d="m 386.06979,11.633142 q 0.19336,0.333985 0.19336,0.615235 0,0.46289 -0.51562,0.708984 -0.50977,0.240235 -1.42383,0.240235 -0.65039,0 -1.4707,-0.09961 -0.81446,-0.105469 -1.81055,-0.304687 -0.0352,0.416015 -0.082,0.896484 -0.041,0.480469 -0.0996,0.972656 -0.0586,0.486328 -0.12891,0.949219 -0.0703,0.462891 -0.1582,0.837891 l 0.0234,0.01172 q 0.65039,-0.298828 1.24804,-0.439453 0.60352,-0.146484 1.17188,-0.146484 0.75586,0 1.38867,0.246094 0.63867,0.240234 1.0957,0.691406 0.45704,0.445312 0.71485,1.083984 0.25781,0.632813 0.25781,1.41211 0,0.597656 -0.15234,1.207031 -0.14649,0.615234 -0.4336,1.177734 -0.28711,0.56836 -0.71484,1.066407 -0.42188,0.498046 -0.97266,0.861328 -0.55078,0.36914 -1.23047,0.580078 -0.67382,0.216797 -1.46484,0.216797 -0.24023,0 -0.52734,-0.03516 -0.28711,-0.03516 -0.58008,-0.117187 -0.28711,-0.07617 -0.5625,-0.205078 -0.26953,-0.123047 -0.48047,-0.304688 -0.20508,-0.18164 -0.33398,-0.421875 -0.12305,-0.240234 -0.12305,-0.550781 0,-0.164062 0.0703,-0.322266 0.0703,-0.158203 0.19336,-0.287109 0.12305,-0.128906 0.29297,-0.210937 0.16992,-0.07617 0.36914,-0.07617 0.17578,0.445312 0.42773,0.761718 0.25782,0.322266 0.55664,0.527344 0.30469,0.210938 0.63868,0.310547 0.33984,0.09961 0.67382,0.09961 0.43946,0 0.82032,-0.146484 0.38672,-0.146484 0.69726,-0.404297 0.31641,-0.257812 0.55664,-0.609375 0.2461,-0.345703 0.41016,-0.755859 0.16992,-0.410156 0.25781,-0.861328 0.0879,-0.445313 0.0879,-0.902344 0,-0.679688 -0.20508,-1.265625 -0.19921,-0.585938 -0.56835,-1.019531 -0.36915,-0.433594 -0.89063,-0.679688 -0.51562,-0.246094 -1.1543,-0.246094 -0.45703,0 -0.95507,0.128907 -0.49805,0.123047 -1.06641,0.404297 l -0.26953,-0.386719 q 0.21679,-1.13086 0.3457,-2.431641 0.13477,-1.300781 0.19922,-2.677734 0.32227,0.01758 0.61523,0.03516 0.29297,0.01172 0.57422,0.02344 0.28125,0.0059 0.55664,0.01172 0.27539,0.0059 0.56836,0.0059 0.83203,0 1.65235,-0.0293 0.82031,-0.03516 1.71679,-0.146485 z"
         style="font-style:normal;font-variant:normal;font-weight:normal;font-stretch:normal;font-size:24px;font-family:Gabriola;-inkscape-font-specification:Gabriola;fill:#a8f2ff;fill-opacity:1;stroke:none;stroke-width:1;stroke-linecap:round;stroke-linejoin:round;stroke-miterlimit:4;stroke-dasharray:none;stroke-opacity:1;paint-order:markers stroke fill"
         id="path1790" />
    </g>
    <g
       aria-label="11"
       style="font-style:normal;font-variant:normal;font-weight:normal;font-stretch:normal;font-size:24px;line-height:1.25;font-family:Gabriola;-inkscape-font-specification:Gabriola;text-align:center;letter-spacing:0px;word-spacing:0px;text-anchor:middle;fill:#a8f2ff;fill-opacity:1;stroke:none;stroke-width:1;stroke-linecap:round;stroke-linejoin:round;stroke-miterlimit:4;stroke-dasharray:none;stroke-opacity:1;paint-order:markers stroke fill"
       id="text868-45">
      <path
         d="m 527.42078,121.50682 q 0.73828,-0.24609 1.35937,-0.42773 0.62695,-0.1875 1.10156,-0.31055 0.48047,-0.12305 0.78516,-0.18164 0.31055,-0.0644 0.41602,-0.0644 0.21679,0 0.3164,0.1289 0.10547,0.12305 0.10547,0.32813 0,0.0469 -0.0117,0.24609 -0.006,0.19922 -0.0234,0.50391 -0.0176,0.30468 -0.041,0.6914 -0.0176,0.38086 -0.041,0.79102 -0.0234,0.4043 -0.0469,0.81445 -0.0176,0.41016 -0.0352,0.76172 -0.0293,0.53906 -0.0586,1.0957 -0.0234,0.55664 -0.0469,1.10743 -0.0234,0.55078 -0.041,1.08398 -0.0117,0.5332 -0.0176,1.02539 l -1.27734,0.15234 -0.0937,-0.006 q 0.0351,-0.39258 0.0644,-0.84375 0.0293,-0.45118 0.0527,-0.88477 0.0293,-0.43945 0.0469,-0.82031 0.0176,-0.38086 0.0293,-0.63282 0.0293,-0.76757 0.0644,-1.74609 0.041,-0.97851 0.041,-2.15039 0,-0.33398 -0.10546,-0.48047 -0.0996,-0.15234 -0.32813,-0.15234 -0.23437,0 -0.77344,0.0996 -0.5332,0.0937 -1.32422,0.3164 z"
         style="font-style:normal;font-variant:normal;font-weight:normal;font-stretch:normal;font-size:24px;font-family:Gabriola;-inkscape-font-specification:Gabriola;fill:#a8f2ff;fill-opacity:1;stroke:none;stroke-width:1;stroke-linecap:round;stroke-linejoin:round;stroke-miterlimit:4;stroke-dasharray:none;stroke-opacity:1;paint-order:markers stroke fill"
         id="path1793" />
      <path
         d="m 532.90515,121.50682 q 0.73828,-0.24609 1.35938,-0.42773 0.62695,-0.1875 1.10156,-0.31055 0.48047,-0.12305 0.78516,-0.18164 0.31054,-0.0644 0.41601,-0.0644 0.2168,0 0.31641,0.1289 0.10547,0.12305 0.10547,0.32813 0,0.0469 -0.0117,0.24609 -0.006,0.19922 -0.0234,0.50391 -0.0176,0.30468 -0.041,0.6914 -0.0176,0.38086 -0.041,0.79102 -0.0234,0.4043 -0.0469,0.81445 -0.0176,0.41016 -0.0351,0.76172 -0.0293,0.53906 -0.0586,1.0957 -0.0234,0.55664 -0.0469,1.10743 -0.0234,0.55078 -0.041,1.08398 -0.0117,0.5332 -0.0176,1.02539 l -1.27734,0.15234 -0.0937,-0.006 q 0.0352,-0.39258 0.0644,-0.84375 0.0293,-0.45118 0.0527,-0.88477 0.0293,-0.43945 0.0469,-0.82031 0.0176,-0.38086 0.0293,-0.63282 0.0293,-0.76757 0.0644,-1.74609 0.041,-0.97851 0.041,-2.15039 0,-0.33398 -0.10547,-0.48047 -0.0996,-0.15234 -0.32812,-0.15234 -0.23438,0 -0.77344,0.0996 -0.53321,0.0937 -1.32422,0.3164 z"
         style="font-style:normal;font-variant:normal;font-weight:normal;font-stretch:normal;font-size:24px;font-family:Gabriola;-inkscape-font-specification:Gabriola;fill:#a8f2ff;fill-opacity:1;stroke:none;stroke-width:1;stroke-linecap:round;stroke-linejoin:round;stroke-miterlimit:4;stroke-dasharray:none;stroke-opacity:1;paint-order:markers stroke fill"
         id="path1795" />
    </g>
    <g
       aria-label="16"
       style="font-style:normal;font-variant:normal;font-weight:normal;font-stretch:normal;font-size:24px;line-height:1.25;font-family:Gabriola;-inkscape-font-specification:Gabriola;text-align:center;letter-spacing:0px;word-spacing:0px;text-anchor:middle;fill:#a8f2ff;fill-opacity:1;stroke:none;stroke-width:1;stroke-linecap:round;stroke-linejoin:round;stroke-miterlimit:4;stroke-dasharray:none;stroke-opacity:1;paint-order:markers stroke fill"
       id="text868-46">
      <path
         d="m 552.47693,229.9814 q 0.73828,-0.24609 1.35937,-0.42773 0.62696,-0.1875 1.10157,-0.31055 0.48046,-0.12305 0.78515,-0.18164 0.31055,-0.0645 0.41602,-0.0645 0.21679,0 0.3164,0.12891 0.10547,0.12305 0.10547,0.32813 0,0.0469 -0.0117,0.24609 -0.006,0.19922 -0.0234,0.50391 -0.0176,0.30468 -0.041,0.6914 -0.0176,0.38086 -0.041,0.79102 -0.0234,0.40429 -0.0469,0.81445 -0.0176,0.41016 -0.0352,0.76172 -0.0293,0.53906 -0.0586,1.0957 -0.0234,0.55664 -0.0469,1.10742 -0.0234,0.55079 -0.041,1.08399 -0.0117,0.5332 -0.0176,1.02539 l -1.27734,0.15234 -0.0937,-0.006 q 0.0351,-0.39257 0.0644,-0.84375 0.0293,-0.45117 0.0527,-0.88476 0.0293,-0.43945 0.0469,-0.82031 0.0176,-0.38086 0.0293,-0.63282 0.0293,-0.76757 0.0644,-1.74609 0.041,-0.97852 0.041,-2.15039 0,-0.33399 -0.10547,-0.48047 -0.0996,-0.15234 -0.32813,-0.15234 -0.23437,0 -0.77344,0.0996 -0.5332,0.0937 -1.32421,0.3164 z"
         style="font-style:normal;font-variant:normal;font-weight:normal;font-stretch:normal;font-size:24px;font-family:Gabriola;-inkscape-font-specification:Gabriola;fill:#a8f2ff;fill-opacity:1;stroke:none;stroke-width:1;stroke-linecap:round;stroke-linejoin:round;stroke-miterlimit:4;stroke-dasharray:none;stroke-opacity:1;paint-order:markers stroke fill"
         id="path1798" />
      <path
         d="m 561.23669,231.44624 q -0.0469,-0.0762 -0.082,-0.14648 -0.0293,-0.0762 -0.0293,-0.14063 0,-0.19921 0.27539,-0.33984 0.55078,-0.28125 1.10156,-0.41602 0.55078,-0.13476 1.0957,-0.13476 0.66211,0 1.25977,0.21094 0.59765,0.21093 1.04297,0.62695 0.45117,0.41602 0.71484,1.03711 0.26367,0.62109 0.26367,1.44141 0,0.68554 -0.1582,1.27148 -0.1582,0.58008 -0.43945,1.06055 -0.28125,0.48047 -0.66797,0.84961 -0.38086,0.36328 -0.82617,0.61523 -0.44532,0.25195 -0.9375,0.38086 -0.48633,0.12891 -0.98438,0.12891 -0.49219,0 -0.97852,-0.12891 -0.48046,-0.12891 -0.91992,-0.39844 -0.43359,-0.27539 -0.80859,-0.6914 -0.375,-0.42188 -0.65039,-0.9961 -0.26953,-0.58008 -0.42774,-1.31836 -0.15234,-0.74414 -0.15234,-1.66406 0,-0.95508 0.19922,-1.9043 0.19922,-0.94922 0.56836,-1.81054 0.375,-0.86133 0.90234,-1.59961 0.52735,-0.73828 1.17774,-1.28321 0.65039,-0.54492 1.41211,-0.84961 0.76171,-0.31054 1.60546,-0.31054 0.50391,0 0.87891,0.082 0.375,0.082 0.62109,0.2168 0.25196,0.13476 0.375,0.31054 0.12305,0.17578 0.12305,0.35742 0,0.10547 -0.0352,0.22852 -0.0352,0.12305 -0.12305,0.24023 -0.082,0.11719 -0.22852,0.2168 -0.14062,0.0996 -0.35156,0.1582 -0.24609,-0.27539 -0.49805,-0.44531 -0.24609,-0.16992 -0.49804,-0.25781 -0.25196,-0.0937 -0.50391,-0.12305 -0.25195,-0.0351 -0.50391,-0.0351 -0.78515,0 -1.4414,0.42187 -0.65625,0.41602 -1.13086,1.21289 -0.47461,0.79102 -0.74414,1.93946 -0.26367,1.14843 -0.26367,2.60742 0,1.38281 0.22851,2.34375 0.22852,0.96093 0.60352,1.56445 0.375,0.60352 0.84961,0.87891 0.48047,0.26953 0.98437,0.26953 0.52149,0 0.9375,-0.20508 0.42188,-0.21094 0.71485,-0.5918 0.29296,-0.38672 0.45117,-0.93164 0.1582,-0.55078 0.1582,-1.23047 0,-0.36328 -0.0703,-0.73828 -0.0645,-0.375 -0.20508,-0.7207 -0.13477,-0.35156 -0.3457,-0.65625 -0.20508,-0.30469 -0.48633,-0.5332 -0.28125,-0.22852 -0.63867,-0.35743 -0.35743,-0.13476 -0.79102,-0.13476 -0.4043,0 -0.80273,0.0996 -0.39844,0.0996 -0.82032,0.32226 z"
         style="font-style:normal;font-variant:normal;font-weight:normal;font-stretch:normal;font-size:24px;font-family:Gabriola;-inkscape-font-specification:Gabriola;fill:#a8f2ff;fill-opacity:1;stroke:none;stroke-width:1;stroke-linecap:round;stroke-linejoin:round;stroke-miterlimit:4;stroke-dasharray:none;stroke-opacity:1;paint-order:markers stroke fill"
         id="path1800" />
    </g>
    <g
       aria-label="12"
       style="font-style:normal;font-variant:normal;font-weight:normal;font-stretch:normal;font-size:24px;line-height:1.25;font-family:Gabriola;-inkscape-font-specification:Gabriola;text-align:center;letter-spacing:0px;word-spacing:0px;text-anchor:middle;fill:#a8f2ff;fill-opacity:1;stroke:none;stroke-width:1;stroke-linecap:round;stroke-linejoin:round;stroke-miterlimit:4;stroke-dasharray:none;stroke-opacity:1;paint-order:markers stroke fill"
       id="text868-80">
      <path
         d="m 479.03903,478.38818 q 0.73828,-0.24609 1.35938,-0.42773 0.62695,-0.1875 1.10156,-0.31055 0.48047,-0.12304 0.78516,-0.18164 0.31054,-0.0644 0.41601,-0.0644 0.2168,0 0.31641,0.1289 0.10547,0.12305 0.10547,0.32813 0,0.0469 -0.0117,0.24609 -0.006,0.19922 -0.0234,0.50391 -0.0176,0.30469 -0.041,0.69141 -0.0176,0.38086 -0.041,0.79101 -0.0234,0.4043 -0.0469,0.81445 -0.0176,0.41016 -0.0351,0.76172 -0.0293,0.53907 -0.0586,1.09571 -0.0234,0.55664 -0.0469,1.10742 -0.0234,0.55078 -0.041,1.08398 -0.0117,0.53321 -0.0176,1.02539 l -1.27735,0.15235 -0.0937,-0.006 q 0.0352,-0.39258 0.0644,-0.84375 0.0293,-0.45117 0.0527,-0.88477 0.0293,-0.43945 0.0469,-0.82031 0.0176,-0.38086 0.0293,-0.63281 0.0293,-0.76758 0.0645,-1.7461 0.041,-0.97851 0.041,-2.15039 0,-0.33398 -0.10547,-0.48047 -0.0996,-0.15234 -0.32812,-0.15234 -0.23438,0 -0.77344,0.0996 -0.5332,0.0937 -1.32422,0.31641 z"
         style="font-style:normal;font-variant:normal;font-weight:normal;font-stretch:normal;font-size:24px;font-family:Gabriola;-inkscape-font-specification:Gabriola;fill:#a8f2ff;fill-opacity:1;stroke:none;stroke-width:1;stroke-linecap:round;stroke-linejoin:round;stroke-miterlimit:4;stroke-dasharray:none;stroke-opacity:1;paint-order:markers stroke fill"
         id="path1803" />
      <path
         d="m 485.08005,485.51904 q 0.97851,-0.70898 1.72851,-1.31836 0.75,-0.60937 1.30078,-1.13672 0.55665,-0.52734 0.93165,-0.97851 0.375,-0.45117 0.60351,-0.83789 0.22852,-0.39258 0.32227,-0.72656 0.0996,-0.33985 0.0996,-0.64454 0,-0.50976 -0.1875,-0.86132 -0.18164,-0.35157 -0.46875,-0.56836 -0.28125,-0.22266 -0.63282,-0.32227 -0.3457,-0.0996 -0.67382,-0.0996 -0.42188,0 -0.72071,0.0996 -0.29297,0.0937 -0.48047,0.25781 -0.18164,0.15821 -0.26953,0.375 -0.082,0.21094 -0.082,0.44532 0,0.33984 0.14063,0.67968 0.14062,0.33399 0.42187,0.5625 l -0.0234,0.0762 q -0.32812,0.16992 -0.67968,0.16992 -0.2168,0 -0.41602,-0.0645 -0.19922,-0.0703 -0.35156,-0.19921 -0.15235,-0.13477 -0.2461,-0.32813 -0.0879,-0.19336 -0.0879,-0.43945 0,-0.35156 0.16993,-0.66211 0.16992,-0.31641 0.45117,-0.57422 0.28711,-0.26367 0.66211,-0.46875 0.375,-0.20508 0.77929,-0.3457 0.41016,-0.14063 0.82618,-0.2168 0.41601,-0.0762 0.78515,-0.0762 0.5332,0 0.9961,0.14062 0.46875,0.14063 0.80859,0.41016 0.3457,0.26367 0.53906,0.65039 0.19922,0.38672 0.19922,0.87891 0,0.35742 -0.0937,0.73242 -0.0937,0.375 -0.32227,0.79101 -0.22265,0.41016 -0.60351,0.87305 -0.375,0.46289 -0.94922,0.99023 -0.57422,0.52149 -1.35937,1.11915 -0.78516,0.59765 -1.82813,1.28906 l 0.0117,0.0293 q 0.55078,-0.14648 1.125,-0.26367 0.57422,-0.11718 1.11328,-0.19922 0.53906,-0.0879 1.02539,-0.1289 0.48633,-0.0469 0.87305,-0.0469 0.32226,0 0.57422,0.0469 0.25781,0.041 0.43945,0.13476 0.18164,0.0937 0.27539,0.2461 0.0996,0.14648 0.0996,0.35156 0,0.26953 -0.16992,0.65625 -0.84375,-0.082 -1.64063,-0.11719 -0.79101,-0.0351 -1.62304,-0.0351 -0.77344,0 -1.58789,0.041 -0.81446,0.041 -1.7461,0.11719 z"
         style="font-style:normal;font-variant:normal;font-weight:normal;font-stretch:normal;font-size:24px;font-family:Gabriola;-inkscape-font-specification:Gabriola;fill:#a8f2ff;fill-opacity:1;stroke:none;stroke-width:1;stroke-linecap:round;stroke-linejoin:round;stroke-miterlimit:4;stroke-dasharray:none;stroke-opacity:1;paint-order:markers stroke fill"
         id="path1805" />
    </g>
    <g
       aria-label="17"
       style="font-style:normal;font-variant:normal;font-weight:normal;font-stretch:normal;font-size:24px;line-height:1.25;font-family:Gabriola;-inkscape-font-specification:Gabriola;text-align:center;letter-spacing:0px;word-spacing:0px;text-anchor:middle;fill:#a8f2ff;fill-opacity:1;stroke:none;stroke-width:1;stroke-linecap:round;stroke-linejoin:round;stroke-miterlimit:4;stroke-dasharray:none;stroke-opacity:1;paint-order:markers stroke fill"
       id="text868-34">
      <path
         d="m 409.02936,534.79492 q 0.73828,-0.24609 1.35937,-0.42773 0.62696,-0.1875 1.10157,-0.31055 0.48046,-0.12305 0.78515,-0.18164 0.31055,-0.0644 0.41602,-0.0644 0.21679,0 0.3164,0.1289 0.10547,0.12305 0.10547,0.32813 0,0.0469 -0.0117,0.24609 -0.006,0.19922 -0.0234,0.50391 -0.0176,0.30469 -0.041,0.6914 -0.0176,0.38086 -0.041,0.79102 -0.0234,0.4043 -0.0469,0.81445 -0.0176,0.41016 -0.0352,0.76172 -0.0293,0.53906 -0.0586,1.0957 -0.0234,0.55665 -0.0469,1.10743 -0.0234,0.55078 -0.041,1.08398 -0.0117,0.5332 -0.0176,1.02539 l -1.27734,0.15235 -0.0937,-0.006 q 0.0352,-0.39258 0.0645,-0.84375 0.0293,-0.45118 0.0527,-0.88477 0.0293,-0.43945 0.0469,-0.82031 0.0176,-0.38086 0.0293,-0.63281 0.0293,-0.76758 0.0644,-1.7461 0.041,-0.97851 0.041,-2.15039 0,-0.33398 -0.10547,-0.48047 -0.0996,-0.15234 -0.32813,-0.15234 -0.23437,0 -0.77344,0.0996 -0.5332,0.0937 -1.32421,0.3164 z"
         style="font-style:normal;font-variant:normal;font-weight:normal;font-stretch:normal;font-size:24px;font-family:Gabriola;-inkscape-font-specification:Gabriola;fill:#a8f2ff;fill-opacity:1;stroke:none;stroke-width:1;stroke-linecap:round;stroke-linejoin:round;stroke-miterlimit:4;stroke-dasharray:none;stroke-opacity:1;paint-order:markers stroke fill"
         id="path1808" />
      <path
         d="m 423.33795,534.23828 q -1.44726,2.61328 -2.84765,5.69531 -1.39454,3.08203 -2.73633,6.63282 l -1.29492,0.0996 -0.0996,-0.0527 q 1.33007,-2.83008 2.69531,-5.625 1.37109,-2.80078 2.80664,-5.58984 -0.48047,-0.006 -0.89649,-0.006 -0.41015,-0.006 -0.78515,-0.006 -0.36914,-0.006 -0.70313,-0.006 -0.33398,-0.006 -0.65625,-0.006 h -0.83203 q -0.46289,0 -0.80859,0.0234 -0.33985,0.0234 -0.58594,0.0996 -0.24609,0.0762 -0.41016,0.22265 -0.16406,0.14063 -0.26953,0.38086 -0.10547,0.24024 -0.16992,0.59766 -0.0644,0.35742 -0.11133,0.85547 l -0.59765,-0.0176 0.0352,-0.65625 q 0.0293,-0.58008 0.0527,-1.01953 0.0293,-0.44531 0.0762,-0.76172 0.0527,-0.32227 0.12891,-0.5332 0.082,-0.2168 0.21679,-0.33985 0.14063,-0.1289 0.33985,-0.18164 0.19922,-0.0527 0.48632,-0.0527 0.15821,0 0.43946,0.0234 0.28711,0.0176 0.66211,0.041 0.38086,0.0176 0.84375,0.041 0.46289,0.0176 0.97265,0.0176 0.50391,0 0.9668,0 0.46875,-0.006 0.93164,-0.0176 0.46875,-0.0117 0.95508,-0.0352 0.49219,-0.0293 1.04297,-0.0762 z"
         style="font-style:normal;font-variant:normal;font-weight:normal;font-stretch:normal;font-size:24px;font-family:Gabriola;-inkscape-font-specification:Gabriola;fill:#a8f2ff;fill-opacity:1;stroke:none;stroke-width:1;stroke-linecap:round;stroke-linejoin:round;stroke-miterlimit:4;stroke-dasharray:none;stroke-opacity:1;paint-order:markers stroke fill"
         id="path1810" />
    </g>
    <g
       aria-label="13"
       style="font-style:normal;font-variant:normal;font-weight:normal;font-stretch:normal;font-size:24px;line-height:1.25;font-family:Gabriola;-inkscape-font-specification:Gabriola;text-align:center;letter-spacing:0px;word-spacing:0px;text-anchor:middle;fill:#a8f2ff;fill-opacity:1;stroke:none;stroke-width:1;stroke-linecap:round;stroke-linejoin:round;stroke-miterlimit:4;stroke-dasharray:none;stroke-opacity:1;paint-order:markers stroke fill"
       id="text868-48">
      <path
         d="m 154.77034,533.71021 q 0.73828,-0.2461 1.35937,-0.42774 0.62696,-0.1875 1.10157,-0.31055 0.48047,-0.12304 0.78515,-0.18164 0.31055,-0.0645 0.41602,-0.0645 0.2168,0 0.31641,0.12891 0.10546,0.12304 0.10546,0.32812 0,0.0469 -0.0117,0.2461 -0.006,0.19921 -0.0234,0.5039 -0.0176,0.30469 -0.041,0.69141 -0.0176,0.38086 -0.041,0.79101 -0.0234,0.4043 -0.0469,0.81446 -0.0176,0.41015 -0.0351,0.76172 -0.0293,0.53906 -0.0586,1.0957 -0.0234,0.55664 -0.0469,1.10742 -0.0234,0.55078 -0.041,1.08398 -0.0117,0.53321 -0.0176,1.0254 l -1.27734,0.15234 -0.0937,-0.006 q 0.0352,-0.39258 0.0645,-0.84375 0.0293,-0.45117 0.0527,-0.88477 0.0293,-0.43945 0.0469,-0.82031 0.0176,-0.38086 0.0293,-0.63281 0.0293,-0.76758 0.0644,-1.74609 0.041,-0.97852 0.041,-2.1504 0,-0.33398 -0.10547,-0.48046 -0.0996,-0.15235 -0.32813,-0.15235 -0.23437,0 -0.77343,0.0996 -0.53321,0.0937 -1.32422,0.31641 z"
         style="font-style:normal;font-variant:normal;font-weight:normal;font-stretch:normal;font-size:24px;font-family:Gabriola;-inkscape-font-specification:Gabriola;fill:#a8f2ff;fill-opacity:1;stroke:none;stroke-width:1;stroke-linecap:round;stroke-linejoin:round;stroke-miterlimit:4;stroke-dasharray:none;stroke-opacity:1;paint-order:markers stroke fill"
         id="path1813" />
      <path
         d="m 162.29964,538.69067 q 0.63281,-0.22265 1.21875,-0.5332 0.59179,-0.31641 1.04882,-0.73828 0.45704,-0.42188 0.72657,-0.96094 0.27539,-0.53906 0.27539,-1.21289 0,-0.43945 -0.16406,-0.79101 -0.15821,-0.35157 -0.4336,-0.5918 -0.27539,-0.24609 -0.64453,-0.375 -0.36914,-0.12891 -0.79102,-0.12891 -0.43359,0 -0.73828,0.0996 -0.29882,0.0937 -0.48632,0.25781 -0.1875,0.15821 -0.2754,0.375 -0.082,0.21094 -0.082,0.44532 0,0.33984 0.12891,0.65625 0.12891,0.3164 0.41016,0.54492 l -0.0234,0.0762 q -0.35156,0.16992 -0.67969,0.16992 -0.22266,0 -0.41601,-0.0645 -0.1875,-0.0644 -0.32813,-0.19336 -0.14062,-0.12891 -0.22266,-0.31641 -0.0762,-0.19336 -0.0762,-0.43945 0,-0.35742 0.16406,-0.66211 0.16993,-0.31055 0.45118,-0.56836 0.28711,-0.25781 0.66211,-0.45703 0.375,-0.20508 0.77929,-0.3457 0.41016,-0.14063 0.82617,-0.21094 0.42188,-0.0762 0.79688,-0.0762 0.51562,0 0.99023,0.14062 0.47461,0.13477 0.83789,0.41016 0.36329,0.26953 0.57422,0.67383 0.2168,0.39844 0.2168,0.92578 0,0.46289 -0.14062,0.87891 -0.13477,0.41015 -0.36915,0.77343 -0.23437,0.35742 -0.55078,0.66797 -0.3164,0.31055 -0.67382,0.57422 -0.35743,0.25781 -0.74415,0.47461 -0.38085,0.21094 -0.74414,0.375 l 0.0117,0.0352 q 0.0293,-0.006 0.0586,-0.006 0.0351,0 0.0644,0 h 0.13477 q 0.6621,0 1.27734,0.19922 0.61523,0.19335 1.08398,0.5625 0.47461,0.36914 0.75586,0.9082 0.28711,0.5332 0.28711,1.21289 0,0.62695 -0.19922,1.17773 -0.19336,0.55078 -0.53906,1.00782 -0.3457,0.45703 -0.81445,0.81445 -0.46875,0.36328 -1.01367,0.60937 -0.54493,0.2461 -1.14258,0.375 -0.5918,0.13477 -1.18946,0.13477 -0.25195,0 -0.55664,-0.0352 -0.30468,-0.0293 -0.60937,-0.10547 -0.29883,-0.0762 -0.58594,-0.19921 -0.28125,-0.12305 -0.5039,-0.30469 -0.2168,-0.17578 -0.34571,-0.41602 -0.13476,-0.23437 -0.13476,-0.54492 0,-0.16406 0.0703,-0.32226 0.0703,-0.15821 0.19336,-0.28711 0.12305,-0.12891 0.29297,-0.21094 0.16992,-0.0762 0.36914,-0.0762 0.19336,0.44531 0.46289,0.76172 0.27539,0.32226 0.59765,0.52734 0.32227,0.21094 0.67969,0.31055 0.35742,0.0996 0.72071,0.0996 0.50976,0 0.99609,-0.19336 0.49219,-0.19336 0.87305,-0.55664 0.38086,-0.36329 0.60937,-0.88477 0.23438,-0.52148 0.23438,-1.17773 0,-0.69141 -0.2461,-1.22461 -0.24609,-0.53907 -0.66211,-0.90235 -0.41015,-0.36914 -0.96093,-0.55664 -0.54493,-0.19336 -1.14844,-0.19336 h -0.18164 q -0.11133,0 -0.19922,0.006 -0.082,0.006 -0.20508,0.0176 z"
         style="font-style:normal;font-variant:normal;font-weight:normal;font-stretch:normal;font-size:24px;font-family:Gabriola;-inkscape-font-specification:Gabriola;fill:#a8f2ff;fill-opacity:1;stroke:none;stroke-width:1;stroke-linecap:round;stroke-linejoin:round;stroke-miterlimit:4;stroke-dasharray:none;stroke-opacity:1;paint-order:markers stroke fill"
         id="path1815" />
    </g>
    <g
       aria-label="18"
       style="font-style:normal;font-variant:normal;font-weight:normal;font-stretch:normal;font-size:24px;line-height:1.25;font-family:Gabriola;-inkscape-font-specification:Gabriola;text-align:center;letter-spacing:0px;word-spacing:0px;text-anchor:middle;fill:#a8f2ff;fill-opacity:1;stroke:none;stroke-width:1;stroke-linecap:round;stroke-linejoin:round;stroke-miterlimit:4;stroke-dasharray:none;stroke-opacity:1;paint-order:markers stroke fill"
       id="text868-0">
      <path
         d="m 87.355354,477.30344 q 0.738282,-0.2461 1.359375,-0.42774 0.626953,-0.1875 1.101563,-0.31054 0.480469,-0.12305 0.785156,-0.18165 0.310547,-0.0645 0.416016,-0.0645 0.216797,0 0.316406,0.12891 0.105469,0.12304 0.105469,0.32812 0,0.0469 -0.01172,0.2461 -0.0059,0.19922 -0.02344,0.5039 -0.01758,0.30469 -0.04102,0.69141 -0.01758,0.38086 -0.04102,0.79101 -0.02344,0.4043 -0.04687,0.81446 -0.01758,0.41015 -0.03516,0.76172 -0.0293,0.53906 -0.05859,1.0957 -0.02344,0.55664 -0.04687,1.10742 -0.02344,0.55078 -0.04102,1.08399 -0.01172,0.5332 -0.01758,1.02539 l -1.277343,0.15234 -0.09375,-0.006 q 0.03516,-0.39258 0.06445,-0.84375 0.0293,-0.45117 0.05273,-0.88476 0.0293,-0.43946 0.04687,-0.82032 0.01758,-0.38086 0.0293,-0.63281 0.0293,-0.76758 0.06445,-1.74609 0.04102,-0.97852 0.04102,-2.15039 0,-0.33399 -0.105469,-0.48047 -0.09961,-0.15235 -0.328125,-0.15235 -0.234375,0 -0.773437,0.0996 -0.533204,0.0937 -1.324219,0.31641 z"
         style="font-style:normal;font-variant:normal;font-weight:normal;font-stretch:normal;font-size:24px;font-family:Gabriola;-inkscape-font-specification:Gabriola;fill:#a8f2ff;fill-opacity:1;stroke:none;stroke-width:1;stroke-linecap:round;stroke-linejoin:round;stroke-miterlimit:4;stroke-dasharray:none;stroke-opacity:1;paint-order:markers stroke fill"
         id="path1818" />
      <path
         d="m 101.0077,474.70187 q 0,0.58008 -0.2168,1.09571 -0.2168,0.51562 -0.57422,0.96093 -0.357419,0.44532 -0.814451,0.82032 -0.457031,0.375 -0.9375,0.67383 0.363282,0.19335 0.714844,0.39257 0.357422,0.19336 0.673828,0.41602 0.322269,0.2168 0.591799,0.46875 0.27539,0.25195 0.47461,0.55664 0.19922,0.30469 0.31054,0.66797 0.11719,0.36328 0.11719,0.80273 0,0.73828 -0.32226,1.40625 -0.31641,0.66211 -0.89063,1.16602 -0.574218,0.49805 -1.376952,0.79101 -0.796875,0.29297 -1.763672,0.29297 -0.679687,0 -1.30664,-0.17578 -0.621094,-0.16992 -1.101563,-0.52734 -0.474609,-0.36328 -0.761719,-0.91406 -0.28125,-0.55079 -0.28125,-1.30665 0,-0.63281 0.199219,-1.14843 0.205078,-0.52149 0.556641,-0.96094 0.357422,-0.43945 0.832031,-0.80859 0.480469,-0.375 1.03125,-0.72071 -0.410156,-0.25195 -0.773438,-0.54492 -0.363281,-0.29297 -0.638671,-0.65625 -0.269532,-0.36914 -0.427735,-0.82617 -0.158203,-0.45703 -0.158203,-1.03125 0,-0.7793 0.328125,-1.40039 0.328125,-0.6211 0.878906,-1.05469 0.550782,-0.43359 1.259766,-0.66211 0.708984,-0.23437 1.476562,-0.23437 0.550782,0 1.072266,0.1582 0.521484,0.15234 0.925777,0.46289 0.41016,0.31055 0.65625,0.77344 0.2461,0.45703 0.2461,1.0664 z m -4.335939,4.24219 q -0.369141,0.25781 -0.685547,0.55664 -0.310547,0.29883 -0.544922,0.65625 -0.228516,0.35156 -0.357422,0.76758 -0.128906,0.41602 -0.128906,0.90234 0,0.52735 0.146484,1.00782 0.152344,0.47461 0.457031,0.83203 0.304688,0.35742 0.75586,0.56836 0.451172,0.21093 1.060547,0.21093 0.474609,0 0.9375,-0.13476 0.46289,-0.13477 0.832031,-0.4043 0.36914,-0.27539 0.591797,-0.68554 0.228515,-0.41016 0.228515,-0.95508 0,-0.60352 -0.234375,-1.04883 -0.234375,-0.44531 -0.621093,-0.79102 -0.386719,-0.35156 -0.884766,-0.63281 -0.498047,-0.28711 -1.025391,-0.56836 z m -1.21875,-3.97851 q 0,0.57421 0.199218,1.01953 0.205078,0.43945 0.539063,0.79101 0.339844,0.35157 0.779297,0.63867 0.445312,0.28125 0.925781,0.53907 0.445312,-0.29883 0.779297,-0.60352 0.333984,-0.31055 0.55664,-0.65039 0.222657,-0.33984 0.333985,-0.72656 0.111328,-0.39258 0.111328,-0.85547 0,-0.45117 -0.128906,-0.83789 -0.128907,-0.38672 -0.386719,-0.67383 -0.257813,-0.28711 -0.644531,-0.44531 -0.38086,-0.16406 -0.890625,-0.16406 -0.445313,0 -0.84375,0.13476 -0.392578,0.12891 -0.691407,0.38086 -0.292968,0.25195 -0.46875,0.62109 -0.169921,0.36329 -0.169921,0.83204 z"
         style="font-style:normal;font-variant:normal;font-weight:normal;font-stretch:normal;font-size:24px;font-family:Gabriola;-inkscape-font-specification:Gabriola;fill:#a8f2ff;fill-opacity:1;stroke:none;stroke-width:1;stroke-linecap:round;stroke-linejoin:round;stroke-miterlimit:4;stroke-dasharray:none;stroke-opacity:1;paint-order:markers stroke fill"
         id="path1820" />
    </g>
    <g
       aria-label="14"
       style="font-style:normal;font-variant:normal;font-weight:normal;font-stretch:normal;font-size:24px;line-height:1.25;font-family:Gabriola;-inkscape-font-specification:Gabriola;text-align:center;letter-spacing:0px;word-spacing:0px;text-anchor:middle;fill:#a8f2ff;fill-opacity:1;stroke:none;stroke-width:1;stroke-linecap:round;stroke-linejoin:round;stroke-miterlimit:4;stroke-dasharray:none;stroke-opacity:1;paint-order:markers stroke fill"
       id="text868-7">
      <path
         d="m 8.4011726,231.60851 q 0.7382813,-0.2461 1.359375,-0.42774 0.6269534,-0.1875 1.1015624,-0.31055 0.480469,-0.12304 0.785156,-0.18164 0.310547,-0.0644 0.416016,-0.0644 0.216797,0 0.316406,0.12891 0.105469,0.12304 0.105469,0.32812 0,0.0469 -0.01172,0.2461 -0.0059,0.19921 -0.02344,0.5039 -0.01758,0.30469 -0.04102,0.69141 -0.01758,0.38086 -0.04101,0.79101 -0.02344,0.4043 -0.04687,0.81446 -0.01758,0.41015 -0.03516,0.76172 -0.0293,0.53906 -0.05859,1.0957 -0.02344,0.55664 -0.04687,1.10742 -0.02344,0.55078 -0.04102,1.08398 -0.01172,0.53321 -0.01758,1.0254 l -1.277344,0.15234 -0.09375,-0.006 q 0.03516,-0.39258 0.06445,-0.84375 0.0293,-0.45117 0.05274,-0.88477 0.0293,-0.43945 0.04687,-0.82031 0.01758,-0.38086 0.0293,-0.63281 0.0293,-0.76758 0.06445,-1.74609 0.04101,-0.97852 0.04101,-2.1504 0,-0.33398 -0.105469,-0.48046 -0.09961,-0.15235 -0.328125,-0.15235 -0.234375,0 -0.7734371,0.0996 -0.5332031,0.0937 -1.3242188,0.31641 z"
         style="font-style:normal;font-variant:normal;font-weight:normal;font-stretch:normal;font-size:24px;font-family:Gabriola;-inkscape-font-specification:Gabriola;fill:#a8f2ff;fill-opacity:1;stroke:none;stroke-width:1;stroke-linecap:round;stroke-linejoin:round;stroke-miterlimit:4;stroke-dasharray:none;stroke-opacity:1;paint-order:markers stroke fill"
         id="path1823" />
      <path
         d="m 13.996876,238.9796 q 1.048828,-1.48242 1.792969,-2.63672 0.75,-1.16016 1.259765,-2.0625 0.515625,-0.9082 0.832031,-1.59961 0.316407,-0.69141 0.503907,-1.24219 0.193359,-0.55664 0.292968,-1.00781 0.09961,-0.45703 0.181641,-0.88476 0.310547,0 0.521484,0.0644 0.216797,0.0586 0.351563,0.16992 0.134766,0.11133 0.193359,0.27539 0.05859,0.1582 0.05859,0.35742 0,0.34571 -0.199219,0.85547 -0.193359,0.50391 -0.533203,1.13086 -0.339844,0.62109 -0.802734,1.3418 -0.462891,0.71484 -0.996094,1.48828 -0.527344,0.76758 -1.107422,1.57031 -0.574219,0.80274 -1.148437,1.59961 l 0.01758,0.0234 q 1.11914,-0.15235 2.173828,-0.26367 1.054687,-0.11719 2.0625,-0.18164 0.01758,-0.32813 0.03516,-0.67383 0.01758,-0.34571 0.03516,-0.76172 0.01758,-0.42188 0.03516,-0.94922 0.02344,-0.5332 0.04687,-1.23047 0.0059,-0.20508 0.08203,-0.35742 0.07617,-0.15234 0.193359,-0.24609 0.117188,-0.0996 0.263672,-0.14649 0.146485,-0.0469 0.292969,-0.0469 0.140625,0 0.28125,0.041 0.146484,0.0352 0.275391,0.11719 -0.04687,0.57422 -0.08203,1.04883 -0.03516,0.47461 -0.06445,0.95508 -0.0293,0.48046 -0.05859,1.00781 -0.0293,0.52148 -0.06445,1.18945 0.509766,-0.0176 0.94336,-0.0176 0.322265,0 0.574218,0.0293 0.251954,0.0234 0.427735,0.0996 0.175781,0.0703 0.269531,0.19922 0.09375,0.1289 0.09375,0.33984 0,0.27539 -0.169922,0.66211 -0.5625,-0.0469 -1.101562,-0.0703 -0.533203,-0.0293 -1.083985,-0.0469 -0.02344,0.50977 -0.04102,0.96094 -0.01758,0.45703 -0.03516,0.93164 -0.01758,0.48047 -0.03516,1.01953 -0.01758,0.54493 -0.04102,1.23047 l -1.242188,0.15821 -0.09375,-0.006 q 0.04687,-0.82032 0.07617,-1.43555 0.03516,-0.60938 0.05859,-1.10156 0.02344,-0.49219 0.04102,-0.91993 0.01758,-0.42187 0.03516,-0.86718 -0.09961,-0.006 -0.19336,-0.006 -0.09375,0 -0.1875,0 h -0.380859 q -1.001953,0 -2.167969,0.041 -1.160156,0.0352 -2.414062,0.14063 z"
         style="font-style:normal;font-variant:normal;font-weight:normal;font-stretch:normal;font-size:24px;font-family:Gabriola;-inkscape-font-specification:Gabriola;fill:#a8f2ff;fill-opacity:1;stroke:none;stroke-width:1;stroke-linecap:round;stroke-linejoin:round;stroke-miterlimit:4;stroke-dasharray:none;stroke-opacity:1;paint-order:markers stroke fill"
         id="path1825" />
    </g>
    <g
       aria-label="19"
       style="font-style:normal;font-variant:normal;font-weight:normal;font-stretch:normal;font-size:24px;line-height:1.25;font-family:Gabriola;-inkscape-font-specification:Gabriola;text-align:center;letter-spacing:0px;word-spacing:0px;text-anchor:middle;fill:#a8f2ff;fill-opacity:1;stroke:none;stroke-width:1;stroke-linecap:round;stroke-linejoin:round;stroke-miterlimit:4;stroke-dasharray:none;stroke-opacity:1;paint-order:markers stroke fill"
       id="text868-19">
      <path
         d="m 37.78849,120.96443 q 0.738282,-0.24609 1.359375,-0.42773 0.626953,-0.1875 1.101563,-0.31055 0.480469,-0.12305 0.785156,-0.18164 0.310547,-0.0645 0.416016,-0.0645 0.216797,0 0.316406,0.1289 0.105469,0.12305 0.105469,0.32813 0,0.0469 -0.01172,0.24609 -0.0059,0.19922 -0.02344,0.50391 -0.01758,0.30469 -0.04102,0.6914 -0.01758,0.38086 -0.04102,0.79102 -0.02344,0.4043 -0.04687,0.81445 -0.01758,0.41016 -0.03516,0.76172 -0.0293,0.53906 -0.05859,1.0957 -0.02344,0.55665 -0.04687,1.10743 -0.02344,0.55078 -0.04102,1.08398 -0.01172,0.5332 -0.01758,1.02539 l -1.277343,0.15235 -0.09375,-0.006 q 0.03516,-0.39258 0.06445,-0.84375 0.0293,-0.45118 0.05273,-0.88477 0.0293,-0.43945 0.04687,-0.82031 0.01758,-0.38086 0.0293,-0.63281 0.0293,-0.76758 0.06445,-1.7461 0.04102,-0.97851 0.04102,-2.15039 0,-0.33398 -0.105469,-0.48047 -0.09961,-0.15234 -0.328125,-0.15234 -0.234375,0 -0.773437,0.0996 -0.533204,0.0937 -1.324219,0.3164 z"
         style="font-style:normal;font-variant:normal;font-weight:normal;font-stretch:normal;font-size:24px;font-family:Gabriola;-inkscape-font-specification:Gabriola;fill:#a8f2ff;fill-opacity:1;stroke:none;stroke-width:1;stroke-linecap:round;stroke-linejoin:round;stroke-miterlimit:4;stroke-dasharray:none;stroke-opacity:1;paint-order:markers stroke fill"
         id="path1828" />
      <path
         d="m 49.806068,126.3492 q 0.04687,0.0762 0.07617,0.15234 0.03516,0.0703 0.03516,0.13477 0,0.18164 -0.275391,0.33984 -0.533203,0.29883 -1.095703,0.42773 -0.556641,0.12305 -1.101563,0.12305 -0.662109,0 -1.265625,-0.23437 -0.603515,-0.24024 -1.066406,-0.68555 -0.457031,-0.45117 -0.732422,-1.0957 -0.269531,-0.65039 -0.269531,-1.47071 0,-0.68554 0.158203,-1.2539 0.164063,-0.57422 0.445313,-1.03125 0.28125,-0.46289 0.667968,-0.8086 0.386719,-0.3457 0.832032,-0.57422 0.445312,-0.23437 0.9375,-0.35156 0.492187,-0.11719 0.990234,-0.11719 0.486328,0 0.960937,0.12891 0.47461,0.12891 0.902344,0.4043 0.427735,0.26953 0.791016,0.68554 0.363281,0.41602 0.626953,0.9961 0.269531,0.57422 0.421875,1.31836 0.152344,0.73828 0.152344,1.65234 0,0.63281 -0.08203,1.30078 -0.07617,0.66797 -0.246093,1.33594 -0.164063,0.66211 -0.416016,1.30078 -0.251953,0.63867 -0.597656,1.20703 -0.339844,0.57422 -0.779297,1.05469 -0.439453,0.48047 -0.978516,0.82617 -0.533203,0.35156 -1.171875,0.54492 -0.632812,0.19922 -1.376953,0.19922 -0.591797,0 -1.054687,-0.12304 -0.457032,-0.12305 -0.773438,-0.31641 -0.316406,-0.19336 -0.486328,-0.43359 -0.164062,-0.23438 -0.164062,-0.46289 0,-0.11719 0.04102,-0.2461 0.04102,-0.12305 0.128906,-0.23437 0.09375,-0.10547 0.240235,-0.19336 0.152344,-0.0879 0.36914,-0.12891 0.257813,0.36328 0.550782,0.58594 0.292968,0.22851 0.597656,0.35742 0.304687,0.13477 0.615234,0.18164 0.310547,0.0469 0.603516,0.0469 0.884766,0 1.535156,-0.43946 0.650391,-0.43359 1.078125,-1.24218 0.427735,-0.80274 0.632813,-1.93946 0.205078,-1.13672 0.205078,-2.54297 0,-1.37695 -0.216797,-2.33789 -0.216797,-0.96679 -0.580078,-1.57031 -0.363281,-0.60352 -0.832031,-0.87305 -0.46875,-0.27539 -0.966797,-0.27539 -0.521485,0 -0.94336,0.18164 -0.421875,0.18164 -0.714843,0.53321 -0.292969,0.35156 -0.451172,0.87304 -0.158203,0.52149 -0.158203,1.19532 0,0.36328 0.07031,0.75 0.07031,0.38671 0.210938,0.75586 0.140625,0.36914 0.351562,0.69726 0.216797,0.32813 0.503906,0.57422 0.28711,0.24609 0.644532,0.39258 0.363281,0.14062 0.796875,0.14062 0.404296,0 0.802734,-0.0937 0.398437,-0.0996 0.820312,-0.32226 z"
         style="font-style:normal;font-variant:normal;font-weight:normal;font-stretch:normal;font-size:24px;font-family:Gabriola;-inkscape-font-specification:Gabriola;fill:#a8f2ff;fill-opacity:1;stroke:none;stroke-width:1;stroke-linecap:round;stroke-linejoin:round;stroke-miterlimit:4;stroke-dasharray:none;stroke-opacity:1;paint-order:markers stroke fill"
         id="path1830" />
    </g>
  </g>
</svg>
